<svg width="24" height="25" fill="none" xmlns="http://www.w3.org/2000/svg"><g clip-path="url(#clip0)"><path d="M19.53 17.66h-.5V7.152a.54.54 0 00-.139-.353.462.462 0 00-.151-.108.433.433 0 00-.178-.036h-1.875a.433.433 0 00-.177.036.462.462 0 00-.152.108.506.506 0 00-.139.353V17.66h-.938v-7.524a.537.537 0 00-.139-.354.462.462 0 00-.151-.107.433.433 0 00-.178-.036h-1.876a.433.433 0 00-.177.036.462.462 0 00-.152.107.506.506 0 00-.14.354v7.524h-.937v-3.547a.537.537 0 00-.14-.353.461.461 0 00-.15-.107.432.432 0 00-.178-.037H9.187a.432.432 0 00-.178.037.461.461 0 00-.151.107.538.538 0 00-.14.354v3.546h-.937v-5.53a.539.539 0 00-.14-.354.462.462 0 00-.15-.107.432.432 0 00-.178-.036H5.438a.432.432 0 00-.178.036.462.462 0 00-.151.107.507.507 0 00-.14.354v5.531h-.5a.442.442 0 00-.325.146.52.52 0 00-.135.352.52.52 0 00.135.352.442.442 0 00.324.145h15.063a.442.442 0 00.324-.145.52.52 0 00.135-.352.52.52 0 00-.135-.352.442.442 0 00-.324-.146zM17.157 7.651h.938v10.01h-.938V7.65zm-3.75 2.985h.938v7.024h-.938v-7.024zm-3.75 3.978h.937v3.05h-.937v-3.05zm-3.75-1.988h.938v5.038h-.938v-5.038z" fill="#B6B4C6"/></g><defs><clipPath id="clip0"><path fill="#fff" transform="translate(4 6.655)" d="M0 0h16v12H0z"/></clipPath></defs></svg>