<svg width="24" height="25" fill="#B6B4C6" xmlns="http://www.w3.org/2000/svg"><path d="M17.516 7.14A7.804 7.804 0 004.568 9.537a7.805 7.805 0 001.916 8.634A7.805 7.805 0 1017.516 7.14zM12 19.505a6.85 6.85 0 116.85-6.85 6.857 6.857 0 01-6.85 6.85z"/><path d="M12 7.097a5.559 5.559 0 105.558 5.558A5.565 5.565 0 0012 7.097zm3.6 8.516l-.625-.624-.637.636.625.625a4.638 4.638 0 01-2.507 1.04v-.879h-.902v.885a4.636 4.636 0 01-2.507-1.041l.625-.624-.637-.637-.625.624a4.636 4.636 0 01-1.04-2.507h.88v-.901h-.88a4.636 4.636 0 011.04-2.507l.625.624.637-.637-.625-.624a4.636 4.636 0 012.507-1.04v.879h.902v-.88c.92.09 1.794.452 2.507 1.04l-.625.625.637.637.625-.624a4.636 4.636 0 011.04 2.507h-3.85a.907.907 0 00-.33-.33V9.803h-.901v2.074a.9.9 0 00-.187 1.417.9.9 0 001.418-.186h3.85a4.636 4.636 0 01-1.04 2.505z"/></svg>