<svg width="24" height="25" viewBox="0 0 24 25" fill="none" xmlns="http://www.w3.org/2000/svg">
<g clip-path="url(#clip0)">
<path d="M19.5307 17.6605H19.0307V7.15226C19.03 7.0863 19.0174 7.02113 18.9935 6.96046C18.9696 6.89979 18.935 6.84482 18.8914 6.79867C18.8479 6.75252 18.7965 6.7161 18.74 6.6915C18.6835 6.6669 18.6231 6.65461 18.5622 6.6553H16.6875C16.6266 6.65461 16.5662 6.6669 16.5097 6.6915C16.4532 6.7161 16.4018 6.75252 16.3583 6.79867C16.3148 6.84482 16.2801 6.89979 16.2562 6.96046C16.2323 7.02113 16.2197 7.0863 16.2191 7.15226V17.6605H15.2813V10.1358C15.2807 10.0699 15.2681 10.0047 15.2442 9.94401C15.2203 9.88333 15.1856 9.82835 15.1421 9.7822C15.0986 9.73605 15.0471 9.69965 14.9906 9.67505C14.9341 9.65045 14.8737 9.63814 14.8128 9.63883H12.9374C12.8765 9.63814 12.8161 9.65045 12.7596 9.67505C12.7031 9.69965 12.6516 9.73605 12.6081 9.7822C12.5646 9.82835 12.5299 9.88333 12.506 9.94401C12.4821 10.0047 12.4695 10.0699 12.4689 10.1358V17.6605H11.5311V14.1133C11.5305 14.0473 11.5179 13.9821 11.494 13.9215C11.4701 13.8608 11.4354 13.8058 11.3919 13.7597C11.3484 13.7135 11.297 13.6771 11.2405 13.6525C11.184 13.6279 11.1236 13.6156 11.0627 13.6163H9.18719C9.12631 13.6156 9.0659 13.6279 9.0094 13.6525C8.95291 13.6771 8.90144 13.7135 8.85794 13.7597C8.81444 13.8058 8.77976 13.8608 8.75587 13.9215C8.73198 13.9821 8.71936 14.0473 8.71873 14.1133V17.6605H7.78098V12.1289C7.78035 12.063 7.76772 11.9978 7.74384 11.9371C7.71995 11.8765 7.68527 11.8215 7.64176 11.7753C7.59826 11.7292 7.5468 11.6928 7.4903 11.6682C7.43381 11.6436 7.3734 11.6313 7.31251 11.632H5.43784C5.37696 11.6313 5.31654 11.6436 5.26005 11.6682C5.20356 11.6928 5.15209 11.7292 5.10859 11.7753C5.06509 11.8215 5.0304 11.8765 5.00651 11.9371C4.98263 11.9978 4.97001 12.063 4.96937 12.1289V17.6605H4.46848C4.34671 17.6605 4.22993 17.7129 4.14382 17.8062C4.05771 17.8995 4.00934 18.026 4.00934 18.1579C4.00934 18.2898 4.05771 18.4163 4.14382 18.5096C4.22993 18.6029 4.34671 18.6553 4.46848 18.6553H19.5307C19.6525 18.6553 19.7693 18.6029 19.8554 18.5096C19.9415 18.4163 19.9899 18.2898 19.9899 18.1579C19.9899 18.026 19.9415 17.8995 19.8554 17.8062C19.7693 17.7129 19.6525 17.6605 19.5307 17.6605ZM17.156 7.65099H18.0937V17.6605H17.156V7.65099ZM13.4058 10.6363H14.3436V17.6605H13.4058V10.6363ZM9.65566 14.6137H10.5934V17.6631H9.65647L9.65566 14.6137ZM5.9063 12.6259H6.84405V17.664H5.9063V12.6259Z" fill="#B6B4C6"/>
</g>
<defs>
<clipPath id="clip0">
<rect width="16" height="12" fill="white" transform="translate(4 6.65527)"/>
</clipPath>
</defs>
</svg>
