<svg width="24" height="25" viewBox="0 0 24 25" fill="none" xmlns="http://www.w3.org/2000/svg">
<path d="M15.5358 10.1173C15.6529 10.2345 15.7186 10.3934 15.7186 10.559C15.7186 10.7247 15.6529 10.8835 15.5358 11.0007L11.3382 15.1943C11.221 15.3113 11.0621 15.3771 10.8965 15.3771C10.7308 15.3771 10.5719 15.3113 10.4547 15.1943L8.45909 13.1976C8.35119 13.0787 8.29321 12.9228 8.29716 12.7622C8.30111 12.6017 8.36669 12.4489 8.4803 12.3354C8.59391 12.2219 8.74684 12.1565 8.90737 12.1527C9.0679 12.149 9.22372 12.2071 9.34253 12.3152L10.897 13.8686L14.6473 10.1173C14.7054 10.0586 14.7746 10.0119 14.8508 9.98011C14.9271 9.94829 15.0089 9.93191 15.0915 9.93191C15.1742 9.93191 15.256 9.94829 15.3322 9.98011C15.4085 10.0119 15.4777 10.0586 15.5358 10.1173ZM20 12.6563C19.9998 14.2383 19.5306 15.7847 18.6516 17.1C17.7727 18.4154 16.5235 19.4406 15.0619 20.0461C13.6004 20.6516 11.9922 20.8102 10.4405 20.5018C8.88889 20.1934 7.46351 19.4319 6.34459 18.3136C5.22567 17.1952 4.46345 15.7702 4.15427 14.2187C3.84509 12.6673 4.00285 11.0589 4.6076 9.59711C5.21235 8.13527 6.23693 6.88555 7.55183 6.00593C8.86673 5.12631 10.4129 4.65628 11.9949 4.65528C13.0457 4.6546 14.0863 4.86106 15.0573 5.26285C16.0283 5.66464 16.9105 6.25387 17.6536 6.99686C18.3967 7.73985 18.986 8.62202 19.3879 9.59294C19.7899 10.5638 19.9965 11.6045 19.9959 12.6553L20 12.6563ZM18.7499 12.6563C18.7499 11.3213 18.354 10.0163 17.6123 8.90625C16.8707 7.79623 15.8165 6.93108 14.5831 6.4202C13.3497 5.90931 11.9925 5.77564 10.6832 6.03609C9.37381 6.29654 8.17109 6.9394 7.2271 7.88339C6.28311 8.82738 5.64024 10.0301 5.3798 11.3395C5.11935 12.6488 5.25302 14.006 5.7639 15.2394C6.27479 16.4728 7.13994 17.5269 8.24996 18.2686C9.35997 19.0103 10.665 19.4062 12 19.4062C12.8863 19.4061 13.7638 19.2313 14.5825 18.8919C15.4012 18.5526 16.1451 18.0552 16.7715 17.4283C17.398 16.8014 17.8948 16.0572 18.2335 15.2382C18.5723 14.4192 18.7464 13.5415 18.7458 12.6553L18.7499 12.6563Z" fill="#B6B4C6"/>
</svg>
