<svg width="24" height="25" viewBox="0 0 24 25" fill="none" xmlns="http://www.w3.org/2000/svg">
<path d="M17.5157 7.13953C16.8012 6.37266 15.9395 5.75758 14.982 5.33098C14.0246 4.90437 12.991 4.67498 11.943 4.65649C10.895 4.638 9.85396 4.83078 8.88207 5.22335C7.91017 5.61591 7.0273 6.20022 6.28612 6.94139C5.54494 7.68257 4.96064 8.56544 4.56808 9.53734C4.17551 10.5092 3.98272 11.5502 4.00121 12.5983C4.01971 13.6463 4.2491 14.6799 4.6757 15.6373C5.10231 16.5947 5.71739 17.4564 6.48425 18.171C7.19882 18.9379 8.06053 19.553 9.01798 19.9796C9.97542 20.4062 11.009 20.6356 12.057 20.6541C13.105 20.6726 14.146 20.4798 15.1179 20.0872C16.0898 19.6946 16.9727 19.1103 17.7139 18.3692C18.4551 17.628 19.0394 16.7451 19.4319 15.7732C19.8245 14.8013 20.0173 13.7603 19.9988 12.7123C19.9803 11.6643 19.7509 10.6307 19.3243 9.67325C18.8977 8.71581 18.2826 7.8541 17.5157 7.13953ZM12 19.5052C10.6452 19.5052 9.32085 19.1035 8.19438 18.3508C7.06792 17.5981 6.18994 16.5283 5.67149 15.2766C5.15303 14.025 5.01738 12.6477 5.28169 11.3189C5.54599 9.99016 6.19839 8.76962 7.15637 7.81164C8.11435 6.85366 9.33489 6.20127 10.6636 5.93696C11.9924 5.67265 13.3697 5.80831 14.6214 6.32676C15.873 6.84522 16.9428 7.72319 17.6955 8.84965C18.4482 9.97612 18.8499 11.3005 18.8499 12.6553C18.848 14.4714 18.1257 16.2126 16.8415 17.4968C15.5573 18.781 13.8161 19.5033 12 19.5052Z" fill="#B6B4C6"/>
<path d="M11.9998 7.0968C10.9005 7.0968 9.82581 7.4228 8.91173 8.03356C7.99766 8.64433 7.28522 9.51244 6.86452 10.5281C6.44381 11.5438 6.33374 12.6614 6.54821 13.7396C6.76269 14.8178 7.29207 15.8083 8.06943 16.5856C8.84679 17.363 9.8372 17.8924 10.9154 18.1068C11.9937 18.3213 13.1113 18.2112 14.1269 17.7905C15.1426 17.3698 16.0107 16.6574 16.6215 15.7433C17.2322 14.8292 17.5582 13.7546 17.5582 12.6552C17.5566 11.1815 16.9704 9.7687 15.9284 8.72665C14.8863 7.6846 13.4735 7.09845 11.9998 7.0968ZM15.5996 15.6129L14.9752 14.9885L14.3383 15.6254L14.9627 16.2498C14.2495 16.839 13.3764 17.2014 12.4557 17.2905V16.4111H11.5544V17.2957C10.6336 17.2067 9.76049 16.8443 9.04734 16.255L9.67176 15.6306L9.03485 14.9937L8.41042 15.6181C7.82117 14.905 7.45873 14.0318 7.36972 13.111H8.24912V12.2098H7.36972C7.45873 11.289 7.82117 10.4159 8.41042 9.70273L9.03485 10.3272L9.67176 9.69024L9.04734 9.06582C9.76049 8.47657 10.6336 8.11413 11.5544 8.02511V8.90451H12.4557V8.02511C13.3765 8.11413 14.2496 8.47657 14.9627 9.06582L14.3383 9.69024L14.9752 10.3272L15.5996 9.70273C16.1889 10.4159 16.5513 11.289 16.6403 12.2098H12.7897C12.7104 12.073 12.5967 11.9592 12.4598 11.8799V9.80264H11.5586V11.8768C11.4389 11.9459 11.3366 12.0416 11.2599 12.1566C11.1831 12.2715 11.1337 12.4026 11.1157 12.5396C11.0977 12.6767 11.1114 12.8161 11.1558 12.947C11.2003 13.0779 11.2742 13.1968 11.372 13.2945C11.4697 13.3923 11.5886 13.4662 11.7195 13.5107C11.8504 13.5551 11.9898 13.5688 12.1269 13.5508C12.2639 13.5328 12.395 13.4834 12.5099 13.4066C12.6249 13.3298 12.7206 13.2276 12.7897 13.1079H16.6403C16.5509 14.028 16.1885 14.9003 15.5996 15.6129Z" fill="#B6B4C6"/>
</svg>
