<svg width="24" height="25" viewBox="0 0 24 25" fill="none" xmlns="http://www.w3.org/2000/svg">
<path d="M4 6.65527V18.6553H20V6.65527H4ZM14.1566 11.7322C13.8777 12.0086 13.5428 12.2286 13.1721 12.3789C12.8014 12.5291 12.4025 12.6066 11.9995 12.6066C11.5965 12.6066 11.1976 12.5291 10.8269 12.3789C10.4562 12.2286 10.1214 12.0086 9.84247 11.7322L5.59932 7.57835H18.3997L14.1566 11.7322ZM8.88249 12.0903L4.93763 16.8904V8.22358L8.88249 12.0903ZM9.57041 12.718C10.2607 13.2403 11.1171 13.5247 11.9995 13.5247C12.882 13.5247 13.7383 13.2403 14.4286 12.718L18.5513 17.7387H5.44774L9.57041 12.718ZM15.1165 12.0903L19.0614 8.22451V16.894L15.1165 12.0903Z" fill="#B6B4C6"/>
</svg>
