<svg width="24" height="25" viewBox="0 0 24 25" fill="none" xmlns="http://www.w3.org/2000/svg">
<g clip-path="url(#clip0)">
<path d="M11.0741 20.6553C9.19796 20.6553 7.39862 19.91 6.07197 18.5834C4.74531 17.2567 4 15.4574 4 13.5812C4 11.705 4.74531 9.90571 6.07197 8.57905C7.39862 7.25239 9.19796 6.50708 11.0741 6.50708H11.5435V13.1119H18.1483V13.5812C18.1483 15.4574 17.403 17.2567 16.0763 18.5834C14.7496 19.91 12.9503 20.6553 11.0741 20.6553ZM10.6048 7.46495C9.43505 7.5549 8.31563 7.9784 7.37926 8.68523C6.44289 9.39206 5.72884 10.3526 5.32179 11.4529C4.91474 12.5532 4.83175 13.7472 5.08266 14.8933C5.33358 16.0393 5.90787 17.0894 6.73745 17.919C7.56703 18.7485 8.6171 19.3228 9.76315 19.5738C10.9092 19.8247 12.1032 19.7417 13.2035 19.3346C14.3038 18.9276 15.2644 18.2135 15.9712 17.2772C16.678 16.3408 17.1015 15.2214 17.1915 14.0516H10.6048V7.46495Z" fill="#B6B4C6"/>
<path d="M20 12.0835H12.5717V4.65527H13.0346C14.8819 4.65527 16.6536 5.38912 17.9599 6.69537C19.2661 8.00163 20 9.77329 20 11.6206V12.0835ZM13.4933 11.1587H19.0538C18.9416 9.72187 18.3202 8.37225 17.3014 7.35285C16.2826 6.33345 14.9333 5.71123 13.4965 5.59821L13.4933 11.1587Z" fill="#B6B4C6"/>
</g>
<defs>
<clipPath id="clip0">
<rect width="16" height="16" fill="white" transform="translate(4 4.65527)"/>
</clipPath>
</defs>
</svg>
