<svg width="168" height="36" fill="none" xmlns="http://www.w3.org/2000/svg"><path d="M134.803 32.907l-2.447-5.96h1.047l1.388 3.535c.213.527.398 1.065.553 1.61h.047c.114-.405.25-.803.409-1.194.229-.604.744-1.921 1.544-3.952h1.047l-2.447 5.96h-1.141zm12.636-6.08c.021.454-.144.899-.462 1.246-.347.343-.807.57-1.309.647v.044a2.568 2.568 0 011.536.609c.343.35.523.81.501 1.283.02.333-.047.666-.196.97a2.113 2.113 0 01-.657.778 4.12 4.12 0 01-2.424.614 7.588 7.588 0 01-1.25-.095 4.541 4.541 0 01-1.103-.335v-.861c.379.172.779.303 1.191.388.392.087.794.133 1.197.137 1.486 0 2.229-.539 2.229-1.616 0-.964-.819-1.447-2.458-1.447h-.848v-.777h.859a2.743 2.743 0 001.594-.41c.191-.13.345-.303.448-.501.103-.199.152-.418.142-.638a1.048 1.048 0 00-.101-.503 1.136 1.136 0 00-.331-.41 1.888 1.888 0 00-1.174-.332 3.905 3.905 0 00-1.065.141 4.917 4.917 0 00-1.141.522l-.495-.609c.367-.264.78-.47 1.221-.606a4.769 4.769 0 011.456-.22 3.15 3.15 0 011.947.53c.229.175.411.398.531.65.12.252.176.526.162.801zm1.865 5.504a.767.767 0 01.179-.553.663.663 0 01.236-.147.698.698 0 01.281-.04.748.748 0 01.288.041.705.705 0 01.244.146.739.739 0 01.191.552.726.726 0 01-.194.546.807.807 0 01-.509.19.808.808 0 01-.517-.17.721.721 0 01-.199-.566v.001zm8.601-3.41a5.448 5.448 0 01-.703 3.077 2.325 2.325 0 01-.925.78c-.379.18-.802.261-1.226.237a2.518 2.518 0 01-1.21-.254 2.29 2.29 0 01-.902-.787 5.335 5.335 0 01-.724-3.054 5.44 5.44 0 01.701-3.084c.226-.328.543-.595.919-.772a2.526 2.526 0 011.216-.234c.424-.017.845.072 1.219.256a2.3 2.3 0 01.908.794c.545.931.796 1.984.727 3.04zm-4.701 0a5.437 5.437 0 00.443 2.523c.123.246.322.453.572.594.251.14.541.21.834.198.295.013.587-.057.839-.2.253-.142.453-.351.575-.6a5.477 5.477 0 00.438-2.515 5.44 5.44 0 00-.438-2.51 1.41 1.41 0 00-.575-.6 1.574 1.574 0 00-.84-.197 1.575 1.575 0 00-.833.195c-.25.14-.45.346-.574.591-.348.8-.498 1.66-.44 2.52h-.001zm6.194 3.41a.772.772 0 01.18-.553.663.663 0 01.236-.147.698.698 0 01.281-.04.748.748 0 01.288.041.705.705 0 01.244.146.739.739 0 01.191.552.726.726 0 01-.194.546.807.807 0 01-.509.19.812.812 0 01-.517-.17.721.721 0 01-.199-.566l-.001.001zm8.601-3.41a5.44 5.44 0 01-.703 3.077 2.318 2.318 0 01-.925.78c-.378.18-.801.261-1.225.237a2.513 2.513 0 01-1.21-.254 2.284 2.284 0 01-.902-.787 5.335 5.335 0 01-.724-3.054 5.432 5.432 0 01.7-3.084 2.31 2.31 0 01.919-.772 2.53 2.53 0 011.217-.234c.423-.017.844.072 1.218.256a2.3 2.3 0 01.908.794 5.31 5.31 0 01.726 3.04h.001zm-4.701 0a5.437 5.437 0 00.443 2.523c.123.246.322.453.573.594.25.14.54.21.833.198a1.57 1.57 0 00.84-.2c.253-.142.453-.351.575-.6a5.477 5.477 0 00.438-2.515 5.44 5.44 0 00-.438-2.51 1.41 1.41 0 00-.575-.6 1.574 1.574 0 00-.84-.197 1.575 1.575 0 00-.833.195c-.25.14-.45.346-.573.591-.349.8-.5 1.66-.442 2.52h-.001z" fill="#CAC7E2"/><path fill-rule="evenodd" clip-rule="evenodd" d="M2.673 36h.52a14.54 14.54 0 005.24-.982 13.68 13.68 0 004.424-2.776c1.4.348 2.844.524 4.294.524a18.587 18.587 0 006.627-1.33 17.468 17.468 0 005.571-3.575 15.982 15.982 0 003.667-5.273 14.991 14.991 0 001.205-6.17 15.001 15.001 0 00-1.186-6.188 15.985 15.985 0 00-3.663-5.296 17.477 17.477 0 00-5.578-3.593A18.603 18.603 0 0017.15 0a18.61 18.61 0 00-6.666 1.32A17.49 17.49 0 004.88 4.91a15.993 15.993 0 00-3.682 5.303A15.004 15.004 0 00.004 16.42a15.517 15.517 0 001.99 7.625C3.311 26.4 5.221 28.43 7.565 29.96c-.962 2.41-2.662 4.508-4.892 6.04zm9.472-30.997a14.044 14.044 0 015.007-1.005 14.07 14.07 0 015.007 1.005 13.2 13.2 0 014.21 2.7 12.077 12.077 0 012.77 3.983 11.31 11.31 0 01.912 4.66v.069c.042 3.207-1.292 6.299-3.709 8.6-2.417 2.3-5.721 3.623-9.19 3.68a14.046 14.046 0 01-5.007-1.005 13.2 13.2 0 01-4.21-2.7 12.075 12.075 0 01-2.77-3.983 11.328 11.328 0 01-.912-4.66c-.03-1.595.28-3.178.911-4.661a12.075 12.075 0 012.772-3.984 13.2 13.2 0 014.21-2.7zm3.335 5.178h3.942v11.456H15.48V10.18zm5.383 5.727h3.941v5.729h-3.941v-5.729zm-7.025-2.977h-3.604v8.72h3.604v-8.72z" fill="url(#paint0_linear)"/><path d="M40.621 16.642v-1.336h2.533v-.741H40.62v-1.261h2.855v-.755h-3.829v4.849h3.934v-.756h-2.96zm11.602.756l-.007-4.85h-.799l-2.045 3.215-2.083-3.214h-.802v4.849h.93v-3.173l1.722 2.619h.435l1.723-2.66.007 3.213h.92zm5.394-4.85h-2.154v4.85h.974v-1.4h1.18c1.38 0 2.234-.658 2.234-1.724 0-1.066-.851-1.725-2.23-1.725h-.004zm-.045 2.688h-1.135v-1.925h1.139c.854 0 1.296.353 1.296.962 0 .61-.442.963-1.297.963h-.003zm5.072 2.162h3.716v-.762h-2.738v-4.087h-.974l-.004 4.849zm8.66.068a2.89 2.89 0 001.074-.15c.343-.118.657-.3.921-.533.265-.233.475-.514.618-.826.143-.311.215-.646.212-.985a2.317 2.317 0 00-.212-.983 2.482 2.482 0 00-.616-.825 2.722 2.722 0 00-.92-.533 2.883 2.883 0 00-1.072-.151 2.888 2.888 0 00-1.073.151 2.728 2.728 0 00-.921.533 2.49 2.49 0 00-.617.825 2.323 2.323 0 00-.214.984c-.002.338.07.673.213.984.143.312.353.593.618.826.264.234.578.415.92.532.343.118.709.17 1.074.152l-.005-.001zm0-.79a1.918 1.918 0 01-.715-.115 1.804 1.804 0 01-.607-.368 1.647 1.647 0 01-.398-.561 1.541 1.541 0 01-.124-.662 1.542 1.542 0 01.124-.661c.09-.21.225-.401.398-.561a1.883 1.883 0 011.322-.483c.245-.008.488.031.716.115.227.083.434.208.607.368s.308.35.398.561c.09.21.132.435.124.661.008.226-.034.451-.123.661-.09.21-.225.401-.397.561-.173.16-.379.286-.606.37-.227.083-.47.122-.714.115l-.005-.001zm9.773-4.127h-.96l-1.549 2.362-1.536-2.362H75.99l2.061 3.152v1.697h.974v-1.711l2.052-3.138zm3.356 4.093v-1.336h2.533v-.741h-2.532v-1.261h2.855v-.755h-3.83v4.849h3.935v-.756h-2.96zm6.84 0v-1.336h2.534v-.741h-2.533v-1.261h2.855v-.755h-3.828v4.849h3.934v-.756h-2.962zm10.819.756h.976V13.31h1.738v-.762h-4.452v.762h1.738v4.087zm5.267 0h.974v-4.849h-.974v4.849zm9.95 0l-.008-4.85h-.802l-2.045 3.215-2.084-3.214h-.802v4.849h.929v-3.173l1.724 2.619h.434l1.723-2.66.008 3.213h.923zm4.208-.756v-1.336h2.532v-.741h-2.532v-1.261h2.855v-.755h-3.829v4.849h3.934v-.756h-2.96zM47.973 32.927l-2.017-2.672a2.888 2.888 0 001.378-1.039c.332-.47.496-1.024.472-1.585 0-1.865-1.503-3.016-3.905-3.016h-3.89v8.312h2.082v-2.316h1.91l1.734 2.316h2.236zm-2.274-5.296c0 .902-.642 1.449-1.914 1.449h-1.698v-2.898h1.698c1.272 0 1.914.535 1.914 1.449zm6.568 3.752v-1.924h4.174v-1.495h-4.174v-1.805h4.728v-1.544h-6.796v8.312h6.962v-1.543l-4.894-.001zm11.193-6.768h-3.893v8.312h2.081v-2.292h1.811c2.402 0 3.905-1.151 3.905-3.002 0-1.867-1.502-3.018-3.904-3.018zm-.116 4.453h-1.697v-2.886h1.697c1.272 0 1.914.534 1.914 1.449 0 .902-.642 1.436-1.914 1.436zm10.73 4.001c2.826 0 4.92-1.816 4.92-4.298 0-2.48-2.094-4.297-4.92-4.297-2.839 0-4.92 1.828-4.92 4.297 0 2.47 2.082 4.298 4.92 4.298zm0-1.637a2.943 2.943 0 01-1.104-.185 2.767 2.767 0 01-.931-.577 2.52 2.52 0 01-.604-.874 2.363 2.363 0 01-.174-1.025c-.019-.349.04-.697.174-1.024a2.52 2.52 0 01.604-.874c.264-.25.581-.446.931-.578.35-.13.726-.194 1.104-.184.378-.01.753.053 1.103.184.35.132.668.328.932.578.264.25.47.547.603.874.134.327.194.675.175 1.024.018.35-.041.698-.175 1.024a2.52 2.52 0 01-.604.874c-.264.25-.58.446-.93.577a2.96 2.96 0 01-1.104.185v.001zm15.202 1.496l-2.019-2.673a2.888 2.888 0 001.379-1.039 2.55 2.55 0 00.471-1.585c0-1.865-1.503-3.016-3.905-3.016H81.31v8.312h2.081v-2.316h1.914l1.735 2.316 2.236.001zM87 27.631c0 .902-.642 1.449-1.915 1.449H83.39v-2.898h1.697c1.273 0 1.915.535 1.915 1.449zm6.234 5.296h2.08v-6.745h2.879v-1.569h-7.837v1.57h2.879l-.001 6.744zm6.825 0h2.081v-8.312h-2.081v8.312zm11.154-8.312v5.048l-4.47-5.048h-1.719v8.312h2.055V27.88l4.483 5.048h1.709v-8.312h-2.058zm11.013 6.46a3.525 3.525 0 01-1.619.356 2.985 2.985 0 01-1.13-.165 2.819 2.819 0 01-.962-.572 2.566 2.566 0 01-.631-.882 2.386 2.386 0 01-.192-1.042 2.374 2.374 0 01.192-1.05c.143-.333.36-.635.637-.886a2.83 2.83 0 01.973-.57 2.977 2.977 0 011.139-.155c.438-.007.872.074 1.272.236.401.162.76.402 1.051.704l1.336-1.14a4.813 4.813 0 00-1.709-1.106 5.146 5.146 0 00-2.055-.33c-2.864 0-4.944 1.792-4.944 4.297s2.081 4.298 4.907 4.298a6.562 6.562 0 003.635-1.057v-3.37h-1.9v2.434z" fill="#8F7FFF"/><defs><linearGradient id="paint0_linear" x1="8.488" y1="22.86" x2="25.43" y2=".816" gradientUnits="userSpaceOnUse"><stop stop-color="#A497FF"/><stop offset="1" stop-color="#624BFF"/></linearGradient></defs></svg>