<?xml version="1.0" encoding="utf-8"?><svg viewBox="0 0 24 25" xmlns="http://www.w3.org/2000/svg" xmlns:xlink="http://www.w3.org/1999/xlink"><style>:root>svg{display:none}:root>svg:target{display:block}</style><svg fill="none" viewBox="0 0 24 25" id="compare" xmlns="http://www.w3.org/2000/svg"><g clip-path="url(#aclip0)"><path d="M19.53 17.66h-.5V7.152a.54.54 0 00-.139-.353.462.462 0 00-.151-.108.433.433 0 00-.178-.036h-1.875a.433.433 0 00-.177.036.462.462 0 00-.152.108.506.506 0 00-.139.353V17.66h-.938v-7.524a.537.537 0 00-.139-.354.462.462 0 00-.151-.107.433.433 0 00-.178-.036h-1.876a.433.433 0 00-.177.036.462.462 0 00-.152.107.506.506 0 00-.14.354v7.524h-.937v-3.547a.537.537 0 00-.14-.353.461.461 0 00-.15-.107.432.432 0 00-.178-.037H9.187a.432.432 0 00-.178.037.461.461 0 00-.151.107.538.538 0 00-.14.354v3.546h-.937V12.13a.539.539 0 00-.14-.354.462.462 0 00-.15-.107.432.432 0 00-.178-.036H5.438a.432.432 0 00-.178.036.462.462 0 00-.151.107.507.507 0 00-.14.354v5.531h-.5a.442.442 0 00-.325.146.52.52 0 00-.135.352.52.52 0 00.135.352.442.442 0 00.324.145h15.063a.442.442 0 00.324-.145.52.52 0 00.135-.352.52.52 0 00-.135-.352.442.442 0 00-.324-.146zM17.157 7.651h.938v10.01h-.938V7.65zm-3.75 2.985h.938v7.024h-.938v-7.024zm-3.75 3.978h.937v3.05h-.937v-3.05zm-3.75-1.988h.938v5.038h-.938v-5.038z" fill="#B6B4C6"/></g><defs><clipPath id="aclip0"><path fill="#fff" transform="translate(4 6.655)" d="M0 0h16v12H0z"/></clipPath></defs></svg><svg fill="none" viewBox="0 0 24 25" id="confirmation" xmlns="http://www.w3.org/2000/svg"><path d="M15.536 10.117a.625.625 0 010 .884l-4.198 4.193a.625.625 0 01-.883 0l-1.996-1.996a.625.625 0 01.884-.883l1.554 1.554 3.75-3.752a.625.625 0 01.889 0zM20 12.657a8 8 0 11-.612-3.064c.402.97.608 2.011.608 3.062l.004.001zm-1.25 0a6.75 6.75 0 10-1.979 4.771 6.745 6.745 0 001.975-4.773l.004.001z" fill="#B6B4C6"/></svg><svg fill="none" viewBox="0 0 24 25" id="hours" xmlns="http://www.w3.org/2000/svg"><path d="M17.516 7.14A7.804 7.804 0 004.568 9.537a7.805 7.805 0 001.916 8.634A7.805 7.805 0 1017.516 7.14zM12 19.505a6.85 6.85 0 116.85-6.85 6.857 6.857 0 01-6.85 6.85z" fill="#B6B4C6"/><path d="M12 7.097a5.559 5.559 0 105.558 5.558A5.565 5.565 0 0012 7.097zm3.6 8.516l-.625-.624-.637.636.625.625a4.638 4.638 0 01-2.507 1.04v-.879h-.902v.885a4.636 4.636 0 01-2.507-1.041l.625-.624-.637-.637-.625.624a4.636 4.636 0 01-1.04-2.507h.88v-.901h-.88a4.636 4.636 0 011.04-2.507l.625.624.637-.637-.625-.624a4.636 4.636 0 012.507-1.04v.879h.902v-.88c.92.09 1.794.452 2.507 1.04l-.625.625.637.637.625-.624c.589.713.951 1.586 1.04 2.507h-3.85a.907.907 0 00-.33-.33V9.803h-.901v2.074a.9.9 0 00-.187 1.417.9.9 0 001.418-.186h3.85a4.636 4.636 0 01-1.04 2.505z" fill="#B6B4C6"/></svg><svg fill="none" viewBox="0 0 24 25" id="mailer" xmlns="http://www.w3.org/2000/svg"><path d="M4 6.655v12h16v-12H4zm10.157 5.077a2.998 2.998 0 01-.985.647 3.125 3.125 0 01-2.345 0c-.37-.15-.706-.37-.985-.647L5.6 7.578h12.8l-4.242 4.154zm-5.275.358l-3.944 4.8V8.224l3.944 3.866zm.688.628a4.03 4.03 0 002.43.807 4.03 4.03 0 002.429-.807l4.122 5.02H5.448l4.122-5.02zm5.546-.628l3.945-3.865v8.669l-3.944-4.804z" fill="#B6B4C6"/></svg><svg fill="none" viewBox="0 0 24 25" id="projects" xmlns="http://www.w3.org/2000/svg"><path d="M16.41 4.655L6.028 15.04 4 20.655l5.618-2.024L20 8.246l-3.59-3.59zm2.265 3.59l-1.904 1.906-2.265-2.266 1.905-1.905 2.264 2.266zM8.559 16.763l6.748-6.75.801.802-6.743 6.749-.806-.801zm-1.463-1.465l6.748-6.749.8.802-6.748 6.749-.8-.802zm-.471.853l1.882 1.882-2.948 1.066 1.066-2.948z" fill="#8F7FFF"/></svg><svg fill="none" viewBox="0 0 24 25" id="summary" xmlns="http://www.w3.org/2000/svg"><g clip-path="url(#fclip0)" fill="#B6B4C6"><path d="M11.074 20.655a7.074 7.074 0 010-14.148h.47v6.605h6.604v.47a7.074 7.074 0 01-7.074 7.073zm-.47-13.19a6.134 6.134 0 106.588 6.587h-6.587V7.465z"/><path d="M20 12.084h-7.428V4.655h.463A6.966 6.966 0 0120 11.621v.463zm-6.507-.925h5.56a6.05 6.05 0 00-5.557-5.56l-.003 5.56z"/></g><defs><clipPath id="fclip0"><path fill="#fff" transform="translate(4 4.655)" d="M0 0h16v16H0z"/></clipPath></defs></svg><svg fill="none" viewBox="0 0 24 25" id="time-reports" xmlns="http://www.w3.org/2000/svg"><path d="M14.058 4.655H6v16h12V8.68l-3.942-4.025zm.27 1.6l2.104 2.15h-2.104v-2.15zm-7.41 13.462V5.592h6.49v3.754h3.674V19.72l-10.164-.003z" fill="#B6B4C6"/><path d="M8.233 12.192h7.534v.926H8.233v-.926zM8.231 14.099h7.533v.926H8.231v-.926zM8.231 15.975h7.533v.926H8.231v-.926z" fill="#B6B4C6"/></svg></svg>